<?xml version="1.0" encoding="utf-8"?>
<!-- Generator: Adobe Illustrator 26.2.0, SVG Export Plug-In . SVG Version: 6.00 Build 0)  -->
<svg version="1.1" id="Ebene_1" xmlns="http://www.w3.org/2000/svg" xmlns:xlink="http://www.w3.org/1999/xlink" x="0px" y="0px"
	 viewBox="0 0 121.4 20.6" style="enable-background:new 0 0 121.4 20.6;" xml:space="preserve">
<style type="text/css">
	.st0{fill:#80BA24;}
</style>
<g>
	<path class="st0" d="M0.1,16C0,16,0,15.9,0.2,15.6C2.7,11.4,6.2,6.7,9,3.7c0.7-0.8,1.1-1.2,1.6-1.2c0.1,0,0.7,0.1,1.3,0.2
		c0.4,0.1,0.8,0.4,0.4,1.1c-0.8,1.6-1.8,3.9-2.4,5.9c2.2-2.7,4.5-5.3,6.3-6.9c0.4-0.3,0.5-0.3,0.8-0.3C17.5,2.7,18,2.8,18.3,3
		c0.6,0.4,0.3,0.8-0.4,1.8c-1.9,2.8-4.3,6.8-5.6,9.3c-0.1,0.2-0.5,0.6-0.7,0.7c-0.3,0.1-0.8,0.2-1.2,0.4c-0.3,0.1-0.4,0-0.3-0.1
		c1.2-2.6,2.6-5.5,4.2-8.4c-2.6,2.5-5,5.5-6.1,7C8,13.9,7.9,14,7.7,14c-0.2,0-0.5-0.1-0.8-0.4c-0.5-0.3-0.7-0.9-0.2-2
		c0.5-1.2,1.2-3,2.2-5c-2.2,2.4-4.2,4.9-6.5,8c-0.4,0.6-0.8,0.9-1.4,1.2C0.4,15.9,0.2,16,0.1,16z"/>
	<path class="st0" d="M16.4,15.1c-0.5-0.3-1.1-0.8-1.4-1.5c-0.3-0.6,0-1.7,0.8-2.8c1-1.3,2.8-2.4,4-2.4c0.5,0,0.9,0.2,1.4,0.9
		c0.4,0.3,0.6,0.7,0.6,1.1c0,0.4-0.4,1-1.5,1.7c-0.7,0.4-1.7,0.9-2.9,1.2c0,0.2-0.1,0.5,0,0.7c0.2,0.1,0.5,0.1,0.8,0.1
		c1.4,0,3.2-1,4.5-2.7l0.1-0.1c0.1-0.2,0.2-0.2,0.2-0.1l0.1,0.1c0.1,0.1,0.1,0.2,0,0.3l-0.1,0.1c-1.2,2-3.5,3.6-5.3,3.6
		C17.1,15.3,16.7,15.2,16.4,15.1z M20.7,9.8c-1.1,0.3-2.4,1.4-3,2.6c0.8-0.3,1.6-0.7,2-1.1C20.5,10.8,20.8,10.4,20.7,9.8z"/>
	<path class="st0" d="M26,13.4c-0.9,1.1-1.9,1.8-2.6,1.8c-0.4,0-0.7-0.2-1.1-0.7c-0.4-0.3-0.8-0.8-0.8-1.5c0-0.5,0.2-1.2,0.8-1.9
		c1.3-1.8,3.3-2.8,4.4-2.8c0.4,0,0.8,0.3,1.1,0.6c1.3-2.1,3.3-5.1,4.5-6.7c0.1-0.2,0.3-0.2,0.4-0.1c0.3,0.2,0.6,0.5,1,0.8
		c0.3,0.3,0.4,0.9-0.1,1.6c-0.7,1-1.7,2.6-2.6,4.1c-1.5,2.4-2.2,3.9-2.2,5c0.7-0.3,1.6-1,2.6-2.3l0.1-0.1c0.1-0.2,0.2-0.2,0.2-0.1
		l0.1,0.1c0.1,0.1,0.1,0.2,0,0.3l-0.1,0.1c-0.6,1.1-2.6,3.3-4.2,3.3c-0.5,0-0.9-0.4-1.1-0.9C26,13.9,26,13.7,26,13.4z M26.3,11.9
		c0.2-0.6,0.5-1.4,0.9-2.1c-2,0.7-3.7,2.8-3.6,4.1C24.5,13.6,25.5,12.9,26.3,11.9z"/>
	<path class="st0" d="M30.6,14.7c-0.8-0.7-0.8-1.2,0.5-3.2c0.8-1.2,1.7-2.4,2.1-2.8c0.1-0.1,0.1-0.1,0.3-0.1c0.5,0,1.6,0.1,1.6,0.8
		c0,0.4-0.4,1-1,1.9c-1,1.4-1.6,2.4-1.8,3c0.7-0.1,1.4-0.5,2.1-1.2c0,0,0.1,0,0.1,0c0,0.1,0,0.2,0,0.3c0,0.1,0,0.2-0.1,0.3
		c-0.5,0.7-1.5,1.7-2.4,1.7C31.4,15.3,31.1,15.1,30.6,14.7z M34.7,6.7c0.3-0.6,0.7-1.2,1-1.5c0.3-0.3,0.4-0.4,0.6-0.4
		c0.4,0.1,0.8,0.3,1,0.5c0.2,0.1,0.3,0.3,0.1,0.4c-0.5,0.5-1,1-1.2,1.2c-0.3,0.3-0.5,0.4-0.8,0.4c-0.3,0-0.6-0.1-0.8-0.2
		C34.6,7,34.6,6.9,34.7,6.7z"/>
	<path class="st0" d="M35.7,14.3c-0.6-0.7-0.9-1.9,0.5-3.6c0.9-1.2,2.6-2.3,3.7-2.3c0.4,0,0.6,0.1,0.9,0.3c0.3,0.2,0.4,0.3,0.6,0.5
		c0.3,0.3,0.6,0.7,0.6,1.1c0,0.5-0.3,1.1-1.5,1.8c-0.6,0.4-1.6,0.8-2.9,1.3c-0.1,0.3-0.1,0.5,0,0.7c0.2,0.1,0.4,0.1,0.6,0.1
		c1.4,0,3.3-1.1,4.6-2.8l0.1-0.1c0.1-0.2,0.2-0.2,0.2-0.1l0.1,0.1c0.1,0.1,0.1,0.2,0,0.3L43,11.7c-1.2,2.1-3.5,3.7-5.3,3.7
		C37,15.5,36.4,15.2,35.7,14.3z M40.9,9.7c-1,0.2-2.3,1.5-3,2.8c0.8-0.3,1.5-0.7,2-1.1C40.6,10.9,41,10.3,40.9,9.7z"/>
	<path class="st0" d="M46,14.7c-0.3-0.4-0.3-0.8-0.1-1.2c0.6-1.3,1.3-2.1,1.6-2.8c-0.9,0.6-2.2,1.7-3.7,3.8
		c-0.3,0.5-0.6,0.6-0.7,0.6c-0.2,0-0.6-0.1-1.1-0.3c-0.4-0.1-0.6-0.4-0.6-0.7c0-0.6,0.4-1.4,1.3-2.6c1.9-2.6,2.3-3.1,2.7-3.1
		c0.2,0,0.6,0.2,0.9,0.4c0.5,0.3,0.6,0.5,0.6,0.8c0,0.2-0.1,0.5-0.4,1c0.7-0.6,1.3-1.1,1.7-1.4C48.6,9,48.8,8.9,49,8.9
		c0.2,0,0.5,0.1,0.9,0.5c0.4,0.3,0.4,0.7,0.1,1.5c-0.5,0.9-1.3,2-1.9,3.2c0.5,0,1.2-0.4,1.9-1.1c0.1-0.1,0.1-0.1,0.1,0
		c0,0.1,0.1,0.2,0.1,0.3c0,0.1,0,0.2-0.1,0.3c-0.5,0.7-1.6,1.8-2.7,1.8C46.8,15.4,46.3,15,46,14.7z"/>
	<path class="st0" d="M51.3,15c-0.3-0.2-0.5-0.5-0.6-0.7c-0.4-0.7-0.1-1.5,1-2.9c1-1.3,1.6-2.3,1.9-2.8c0.2-0.4,0.3-0.5,0.5-0.4
		c0.5,0.2,1,0.3,1.3,0.4c0.4,0.2,0.5,0.8-0.1,1.6c-0.9,1.1-2.3,3-2.4,4c0.8-0.1,2-0.8,3.5-2.9l0.1-0.1c0.1-0.2,0.2-0.2,0.2-0.1
		l0.1,0.1c0.1,0.1,0.1,0.2,0,0.3l-0.1,0.1c-0.8,1.3-2.9,3.7-4.2,3.7C52,15.5,51.6,15.3,51.3,15z M55.2,6.8c0.5-0.5,1.1-1.4,1.4-2
		c0.1-0.1,0.1-0.1,0.2-0.1c0.5,0.2,0.8,0.5,1,0.8c0.1,0.2,0.1,0.4-0.1,0.7c-0.4,0.4-0.7,0.7-0.9,0.8c-0.3,0.2-0.6,0.2-1,0.2
		c-0.2,0-0.5-0.1-0.6-0.2C55.1,7,55.1,6.9,55.2,6.8z"/>
	<path class="st0" d="M56.5,15.3c-0.3,0-0.6-0.2-0.9-0.4c-0.3-0.3-0.6-0.6-0.6-1c0-0.5,0.5-1.4,1.3-2.4c1.1-1.5,2-2.6,2.2-3
		c0.1-0.1,0.1-0.2,0.3-0.2c0.4,0,1,0.3,1.5,0.7c0.3,0.3,0.4,0.6,0.3,1c1-0.5,1.7-0.8,2.1-0.8c0.3,0,0.6,0.1,0.8,0.4
		c0.4,0.4,0.4,0.7,0.1,1.3c-0.5,1-1.6,2.4-1.8,3.3c0.6-0.1,1.3-0.5,1.8-1.1c0,0,0.1,0,0.1,0c0,0.1,0,0.2,0,0.3c0,0.1,0,0.2-0.1,0.3
		c-0.4,0.6-1.4,1.6-2.4,1.6c-0.5,0-0.9-0.3-1.3-0.6c-0.4-0.5-0.6-1-0.3-1.6c0.4-1,1.4-1.8,1.9-2.6c-0.7,0.5-1.7,1.3-2.7,2.1
		C58,13.7,57.4,14.6,57,15C56.7,15.2,56.6,15.3,56.5,15.3z"/>
	<path class="st0" d="M62.7,17.5c-0.3,0-0.4-0.2-0.3-0.6c0.4-1.1,1.7-3.6,3-5.5c0.5-0.7,0.9-1.4,1.3-1.9c-0.3,0-0.3-0.1-0.5-0.2
		c-0.3-0.3-0.4-0.6-0.4-0.6c0-0.1,0.1-0.1,0.2-0.1c0.4-0.1,0.9-0.1,1.5-0.2c1.8-2.5,3.1-4.2,4.4-5.5c0.4-0.3,0.6-0.4,0.8-0.4
		c0.4,0,0.9,0.1,1.2,0.3c0.2,0.1,0.3,0.5,0.3,0.8c-0.1,0.8-0.4,1.9-0.9,2.6c-0.2,0.3-0.5,0.3-0.8,0.3c-0.1,0-0.3,0-0.5-0.1
		c-0.1,0-0.2-0.1-0.3-0.4c-0.4,0.6-0.9,1.3-1.4,2.1H71c1.2,0,1.4,0.1,1.5,0.2c0.2,0.1,0.4,0.3,0.4,0.4c0,0.1-0.1,0.1-0.3,0.2
		c-1.1,0.1-2.1,0.2-3,0.3c-1.5,2.4-4,6.1-5,7.3c-0.5,0.5-0.7,0.7-1.2,0.8C63.2,17.4,63,17.5,62.7,17.5z"/>
	<path class="st0" d="M69.8,14.5c-0.8-0.9-0.9-2.1,0.2-3.7c1-1.3,2.8-2.4,3.9-2.4c0.4,0,0.7,0.1,1.1,0.3c0.5,0.3,0.6,0.5,0.6,0.6
		c0,0.1,0,0.1-0.2,0.2c0.2,0.3,0.4,0.7,0.4,1.2c0,0.2,0,0.3,0,0.5c1-0.2,2-0.8,2.8-1.7l0.1-0.1c0.1-0.1,0.2-0.1,0.3-0.1l0,0.1
		c0.1,0.1,0.1,0.2,0,0.3l-0.1,0.1c-0.7,0.9-2,1.9-3.4,2.2c-0.6,1.6-2.2,3.2-4,3.2C70.8,15.3,70.3,15,69.8,14.5z M74.5,12
		c-0.7-0.2-1-0.7-1.1-1.3c-1.1,0.9-2,2.1-1.9,3.2C72.6,13.9,73.8,13,74.5,12z M75,9.8c-0.3,0.2-0.6,0.3-0.9,0.5
		c0,0.5,0.3,0.8,0.9,0.9c0.1-0.3,0.2-0.5,0.2-0.8C75.1,10.1,75.1,9.9,75,9.8z"/>
	<path class="st0" d="M76.5,14.8c-0.4-0.3-0.6-0.5-0.6-0.9c0-0.6,0.4-1.3,1.3-2.4c1.1-1.5,1.9-2.6,2.1-3.1c0.1-0.1,0.1-0.1,0.4-0.1
		c0.3,0,0.7,0.1,1,0.3c0.3,0.1,0.4,0.4,0.2,1.2c1-0.8,1.9-1.4,2.9-2c0.3-0.2,0.5-0.3,0.6-0.3c0.1,0,0.2,0.3,0.2,0.5
		c0,0.2-0.1,0.3-0.3,0.5c-1.7,1.2-3.4,2.9-5.5,5.7c-0.8,1.1-0.9,1.2-1.2,1.2C77.2,15.2,76.9,15.1,76.5,14.8z"/>
	<path class="st0" d="M83.1,15.3c-0.5-0.1-1.3-0.6-1.4-1.2c-0.1-0.6,0.4-1.5,1.4-2.7c1.3-1.7,1.9-2.6,2.1-3c0.1-0.2,0.2-0.3,0.3-0.3
		c0.1,0,0.3,0.1,0.6,0.2c0.9,0.3,1.2,0.5,1,1.1c1-0.6,1.7-1,2.1-1c0.3,0,0.5,0.1,0.9,0.3c0.4,0.3,0.5,0.5,0.4,1
		c-0.1,0.3-0.2,0.7-0.4,1.1c1.3-1.1,1.7-1.3,2-1.3c0.3,0,0.5,0.1,0.7,0.2c0.3,0.2,0.5,0.5,0.5,0.8c-0.1,0.9-1.1,2-1.6,3.3
		c0.9-0.1,1.7-0.8,2.9-2.5l0.1-0.1c0.1-0.2,0.2-0.2,0.2-0.1l0.1,0.1c0.1,0.1,0.1,0.2,0,0.3L95,11.7c-1.1,1.9-2.6,3.3-3.8,3.3
		c-0.3,0-0.8-0.1-1-0.3c-0.5-0.3-0.6-0.6-0.5-1.2c0.1-0.5,0.4-1.3,0.6-1.9c-0.5,0.4-1.2,1.1-1.9,2.2c-0.6,1-0.8,1.2-1.1,1.2
		s-0.5-0.2-0.9-0.3c-0.7-0.3-0.7-0.7-0.5-1.1c0.3-0.8,1-1.7,1.6-2.6c0.4-0.6,0.6-0.9,0.7-1.3c-0.6,0.4-1.4,1.1-2.3,2
		c-0.7,1-1.4,1.9-2,3C83.7,15.1,83.4,15.4,83.1,15.3z"/>
	<path class="st0" d="M94.6,14.6c-0.4-0.2-0.6-0.4-0.8-0.8c-0.4-0.7-0.3-1.7,0.8-3c0.9-1.1,2.1-1.9,3.3-2.3c0.4-0.1,0.7-0.2,1.1-0.1
		c0.4,0.1,0.9,0.5,1.2,0.9c0.1,0,0.3,0,0.5,0.1c0.4,0.2,1,0.7,1.2,1c0.1,0.1,0.1,0.3-0.1,0.4c-0.7,0.8-1.3,1.9-1.5,3
		c0.8-0.1,1.7-0.7,2.9-2.3l0.1-0.1c0.1-0.2,0.2-0.2,0.2-0.1l0.1,0.1c0.1,0.1,0.1,0.2,0,0.3l-0.1,0.1c-0.6,1.1-2.7,3.4-4.5,3.4
		c-0.8,0-1.1-0.7-1-1.7c-0.7,0.8-1.4,1.4-1.9,1.6C95.7,15.2,95.3,15.2,94.6,14.6z M98.6,11.6c0.3-0.6,0.7-1.2,1-1.7
		c-2,0.6-3.8,2.7-3.8,4C96.8,13.5,97.8,12.7,98.6,11.6z"/>
	<path class="st0" d="M102.5,14.1c-0.3-0.4-0.2-1.4,0.7-2.7c0.3-0.5,0.8-1.2,1.4-2c-0.5,0-0.7-0.1-0.8-0.2c-0.1-0.1-0.1-0.5-0.1-0.6
		s0.1-0.2,0.3-0.2c0.5-0.1,1-0.1,1.5-0.2c0.8-1.1,1.6-2.2,2-3c0.3-0.5,0.3-0.6,0.4-0.6c0.1,0,0.5,0.1,0.9,0.3
		c0.4,0.2,0.7,0.5,0.7,0.8c0,0.4-0.4,1.1-1,2.1c0.6-0.1,1-0.1,1.3-0.1c0.2,0,0.3,0,0.3,0.1c0,0.1,0,0.3-0.1,0.4
		c-0.1,0.1-0.2,0.1-0.5,0.2c-0.4,0.1-1,0.3-1.7,0.4c-1,1.5-2.5,3.7-3,4.9c0.1,0,0.2,0,0.3,0c0.6,0,1.5-0.4,2.2-1c0,0,0.1,0,0.1,0
		c0,0.1,0,0.2,0,0.3c0,0.1,0,0.2-0.1,0.3c-0.5,0.7-1.7,1.7-2.8,1.7C103.6,15.3,103,14.8,102.5,14.1z"/>
	<path class="st0" d="M108.5,15c-0.3-0.2-0.5-0.5-0.6-0.7c-0.4-0.7-0.1-1.5,1-2.9c1-1.3,1.6-2.3,1.9-2.8c0.2-0.4,0.3-0.5,0.5-0.4
		c0.5,0.2,1,0.3,1.3,0.4c0.5,0.2,0.5,0.8-0.1,1.6c-0.9,1.1-2.3,3-2.4,4c0.8-0.1,2-0.8,3.5-2.9l0.1-0.1c0.1-0.2,0.2-0.2,0.2-0.1
		l0.1,0.1c0.1,0.1,0.1,0.2,0,0.3l-0.1,0.1c-0.8,1.3-2.9,3.7-4.2,3.7C109.2,15.5,108.9,15.3,108.5,15z M112.4,6.8
		c0.5-0.5,1.1-1.4,1.4-2c0.1-0.1,0.1-0.1,0.2-0.1c0.5,0.2,0.8,0.5,1,0.8c0.1,0.2,0.1,0.4-0.1,0.7c-0.4,0.4-0.7,0.7-0.9,0.8
		c-0.3,0.2-0.6,0.2-1,0.2c-0.2,0-0.5-0.1-0.6-0.2C112.3,7,112.3,6.9,112.4,6.8z"/>
	<path class="st0" d="M116.4,12.4c-0.4,0.3-0.7,0.7-1.1,1.1c-1.3,1.5-1.6,1.5-2.6,1.4c-0.6,0-0.9-0.2-0.1-1.9
		c0.2-0.4,0.5-0.9,0.9-1.5c1.9-2.9,4.8-7.4,5.6-8.8c0.1-0.2,0.2-0.3,0.4-0.2c0.4,0.1,0.9,0.3,1.1,0.5c0.4,0.4,0.2,1.2-0.3,1.9
		c-0.7,1.3-2,3.2-3.9,6.2c1.7-1.3,3-1.9,4.6-3.7c0.1-0.2,0.3,0.1,0.3,0.4c0,0.4-0.2,0.7-0.6,1.1c-0.5,0.5-1.1,1-1.8,1.4
		c-0.4,1.4-0.5,2.4-0.3,3c0.5,0,1.1-0.3,1.8-0.9c0.1-0.1,0.1,0,0.1,0.1c-0.1,0.2-0.2,0.5-0.3,0.7c-0.1,0.1-0.3,0.3-0.6,0.6
		c-0.9,0.8-1.7,1.2-2.2,1.2C116.6,15,116.3,14.3,116.4,12.4z"/>
</g>
</svg>
